<svg width="44" height="44" viewBox="0 0 44 44" fill="none" xmlns="http://www.w3.org/2000/svg">
<circle cx="22" cy="22" r="21.5" stroke="#23262D"/>
<path d="M10 18.9531V18.7188C10 15.4375 12.3438 12.625 15.5781 12.1094C17.6875 11.7344 19.8906 12.4375 21.4375 13.9844L22 14.5L22.5156 13.9844C24.0625 12.4375 26.2656 11.7344 28.375 12.1094C31.6094 12.625 34 15.4375 34 18.7188V18.9531C34 20.9219 33.1562 22.7969 31.75 24.1094L23.2656 32.0312C22.9375 32.3594 22.4688 32.5 22 32.5C21.4844 32.5 21.0156 32.3594 20.6875 32.0312L12.2031 24.1094C10.7969 22.7969 10 20.9219 10 18.9531Z" fill="#D9A14C"/>
</svg>
