<svg width="65" height="65" viewBox="0 0 65 65" fill="none" xmlns="http://www.w3.org/2000/svg">
<g clip-path="url(#clip0_3788_1094)">
<path d="M17.3309 19.5C14.3391 19.5 11.9141 21.925 11.9141 24.9163C11.9141 27.9082 14.3391 30.3332 17.3309 30.3332C20.3222 30.3332 22.7472 27.9082 22.7472 24.9163C22.7437 21.9265 20.3207 19.5035 17.3309 19.5ZM17.3309 28.1665C15.5357 28.1665 14.0807 26.7115 14.0807 24.9163C14.0807 23.1216 15.5357 21.6666 17.3309 21.6666C19.1256 21.6666 20.5806 23.1216 20.5806 24.9163C20.5786 26.7105 19.1246 28.1645 17.3309 28.1665Z" fill="#FF9205"/>
<path d="M61.7497 31.4169H60.6667V11.3752C60.6667 9.28096 58.9692 7.58346 56.8749 7.58346C54.7807 7.58346 53.0832 9.28096 53.0832 11.3752V31.4169H49.8335V3.2502C49.8315 1.45599 48.3775 0.00198364 46.5833 0H3.2502C1.45599 0.00198364 0.00198364 1.45599 0 3.2502V46.5833C0.00198364 48.3775 1.45599 49.8315 3.2502 49.8335H31.0916C32.8 54.6438 37.1635 58.0116 42.2501 58.445V61.7497C42.252 63.5439 43.7061 64.998 45.4998 64.9999H47.6664C49.4606 64.998 50.9146 63.5439 50.9166 61.7497V58.445C57.6466 57.8772 62.8229 52.2541 62.8333 45.4998V37.7169C64.325 37.1923 65.2206 35.6678 64.9528 34.1092C64.685 32.5506 63.3312 31.4129 61.7497 31.4169ZM55.2498 11.3752C55.2498 10.4776 55.9773 9.75009 56.8749 9.75009C57.7725 9.75009 58.5 10.4776 58.5 11.3752V31.4169H55.2498V11.3752ZM3.2502 47.6669C2.65213 47.6659 2.16762 47.1814 2.16663 46.5833V3.2502C2.16762 2.65213 2.65213 2.16762 3.2502 2.16663H46.5833C47.1814 2.16762 47.6659 2.65213 47.6664 3.2502V31.4169H43.285C45.5652 25.0425 44.3512 17.9405 40.0834 12.6859V11.3752C40.0809 9.28195 38.3844 7.58594 36.2917 7.58346C35.6986 7.58743 35.1149 7.73223 34.5887 8.00597C26.8972 3.60675 17.2061 4.94869 10.9998 11.2725C4.79347 17.5969 3.63353 27.3113 8.17657 34.919C12.7196 42.5263 21.822 46.1122 30.3333 43.6475V45.4998C30.3378 46.2263 30.4033 46.9513 30.5292 47.6669H3.2502ZM40.0834 31.4169V16.5451C41.5017 19.1074 42.2471 21.9877 42.2501 24.9165C42.2486 27.1466 41.8102 29.3549 40.9607 31.4169H40.0834ZM31.4164 31.4169C29.8349 31.4129 28.4816 32.5506 28.2138 34.1092C27.946 35.6678 28.8416 37.1923 30.3333 37.7169V41.3688C22.8491 43.837 14.6417 40.9448 10.3596 34.3294C6.07688 27.7139 6.79695 19.0415 12.1126 13.2234C17.4283 7.40543 26.0006 5.90728 32.9746 9.57652C32.6676 10.1265 32.5044 10.7454 32.5 11.3752V19.6098C29.9783 20.1245 28.1672 22.3427 28.1672 24.9165C28.1672 27.4903 29.9783 29.709 32.5 30.2237V31.4169H31.4164ZM32.5 27.9669C31.2027 27.5146 30.3333 26.2907 30.3333 24.9165C30.3333 23.5423 31.2027 22.3189 32.5 21.8662V27.9669ZM34.6666 11.3752C34.6666 10.4776 35.3941 9.75009 36.2917 9.75009C37.1893 9.75009 37.9168 10.4776 37.9168 11.3752V31.4169H34.6666V11.3752ZM48.75 61.7497C48.749 62.3478 48.2645 62.8323 47.6664 62.8333H45.4998C44.9022 62.8323 44.4172 62.3478 44.4167 61.7497V58.5H48.75V61.7497ZM60.6667 45.4998C60.6597 51.4804 55.8137 56.3265 49.8335 56.3334H43.3331C37.3529 56.3265 32.5064 51.4804 32.5 45.4998V37.9168H34.6666V42.2501C34.6666 42.8481 35.1516 43.3331 35.7502 43.3331C36.3482 43.3331 36.8332 42.8481 36.8332 42.2501V37.9168H38.9999V42.2501C38.9999 42.8481 39.4849 43.3331 40.0834 43.3331C40.6815 43.3331 41.1665 42.8481 41.1665 42.2501V37.9168H43.3331V42.2501C43.3331 42.8481 43.8181 43.3331 44.4167 43.3331C45.0148 43.3331 45.4998 42.8481 45.4998 42.2501V37.9168H47.6664V42.2501C47.6664 42.8481 48.1519 43.3331 48.75 43.3331C49.348 43.3331 49.8335 42.8481 49.8335 42.2501V37.9168H52.0001V42.2501C52.0001 42.8481 52.4851 43.3331 53.0832 43.3331C53.6818 43.3331 54.1668 42.8481 54.1668 42.2501V37.9168H56.3334V42.2501C56.3334 42.8481 56.8184 43.3331 57.4165 43.3331C58.015 43.3331 58.5 42.8481 58.5 42.2501V37.9168H60.6667V45.4998ZM61.7497 35.7502H31.4164C30.8183 35.7502 30.3333 35.2652 30.3333 34.6666C30.3333 34.0685 30.8183 33.5835 31.4164 33.5835H61.7497C62.3483 33.5835 62.8333 34.0685 62.8333 34.6666C62.8333 35.2652 62.3483 35.7502 61.7497 35.7502Z" fill="#FF9205"/>
</g>
<defs>
<clipPath id="clip0_3788_1094">
<rect width="65" height="65" fill="white"/>
</clipPath>
</defs>
</svg>
