<svg width="65" height="65" viewBox="0 0 65 65" fill="none" xmlns="http://www.w3.org/2000/svg">
<path d="M61.7429 31.001C61.7409 30.7555 61.7409 30.5105 61.7374 30.2645C61.6928 27.5906 61.6283 24.9722 61.3367 22.3419C60.9132 18.5392 59.9263 13.0649 56.2477 9.43431C52.145 5.38718 44.9553 5.54389 39.9704 7.78987C36.3319 9.43034 34.1306 12.2169 31.7804 15.1913C29.5111 17.9555 26.1826 19.6357 22.611 19.8187C21.5062 19.9352 20.3566 19.9843 19.2458 20.0314C17.1263 20.0518 15.0142 20.2853 12.9413 20.7287C8.26385 21.8846 3.42327 25.5574 3.23929 31.0064C1.33648 31.5013 0.00595093 33.2167 0 35.1825V48.1828C0.00247955 50.5751 1.94099 52.5136 4.33327 52.516H8.24749L6.55594 57.5897C6.44585 57.92 6.50089 58.2835 6.70422 58.5662C6.90804 58.8488 7.23484 59.0159 7.58347 59.0159H10.8332C11.1957 59.0159 11.5339 58.8349 11.7347 58.5334L15.7467 52.516H49.2538L53.2658 58.5334C53.4666 58.8349 53.8048 59.0159 54.1668 59.0159H57.4165C57.7652 59.0159 58.092 58.8488 58.2958 58.5662C58.4991 58.2835 58.5542 57.92 58.4441 57.5897L56.7525 52.516H60.6667C63.059 52.5136 64.9975 50.5751 65 48.1828V35.1825C64.994 33.2093 63.6546 31.4899 61.7429 31.001ZM13.4615 22.8318C15.3941 22.4237 17.3628 22.2109 19.338 22.1961C20.4826 22.1475 21.6653 22.0969 22.8372 21.9739C27.4933 21.483 30.9751 19.7041 33.4993 16.51C35.6614 13.773 37.7036 11.1878 40.8606 9.76508C45.171 7.8221 51.3173 7.61382 54.7262 10.9771C57.9149 14.1231 58.7962 19.1065 59.1825 22.5809C59.4646 25.118 59.5271 27.6799 59.5708 30.2988C59.5742 30.5343 59.5742 30.7699 59.5762 31.0054C57.6714 31.4989 56.3394 33.2152 56.3335 35.1825V41.185C55.1453 40.1113 53.6015 39.5167 52.0002 39.5162H12.9998C11.3985 39.5167 9.85474 40.1113 8.66653 41.185V35.1825C8.66108 33.2078 7.31915 31.487 5.40543 30.9995C5.60677 26.7133 9.60529 23.7845 13.4615 22.8318ZM56.3335 50.3494H8.66653V48.1828H56.3335V50.3494ZM8.66653 46.0161C8.66901 43.6239 10.608 41.6854 12.9998 41.6829H52.0002C54.392 41.6854 56.331 43.6239 56.3335 46.0161H8.66653ZM2.16663 48.1828V35.1825C2.16663 33.9859 3.13663 33.0159 4.33327 33.0159C5.5299 33.0159 6.4999 33.9859 6.4999 35.1825V50.3494H4.33327C3.13713 50.3479 2.16812 49.3789 2.16663 48.1828ZM10.2534 56.8493H9.08657L10.5307 52.516H13.1426L10.2534 56.8493ZM55.9134 56.8493H54.7466L51.8574 52.516H54.4698L55.9134 56.8493ZM62.8334 48.1828C62.8319 49.3789 61.8629 50.3479 60.6667 50.3494H58.5001V35.1825C58.5001 33.9859 59.4701 33.0159 60.6667 33.0159C61.8634 33.0159 62.8334 33.9859 62.8334 35.1825V48.1828Z" fill="#FF9205"/>
<path d="M14.0836 33.0169C14.6816 33.0174 15.1661 33.5024 15.1666 34.1004C15.1666 34.6985 15.6521 35.1835 16.2502 35.1835C16.8483 35.1835 17.3338 34.6985 17.3338 34.1004C17.3343 33.5024 17.8188 33.0174 18.4168 33.0169C19.0154 33.0169 19.5004 32.5319 19.5004 31.9338C19.5004 31.3352 19.0154 30.8502 18.4168 30.8502C17.8188 30.8497 17.3343 30.3652 17.3338 29.7672C17.3338 29.1686 16.8483 28.6836 16.2502 28.6836C15.6521 28.6836 15.1666 29.1686 15.1666 29.7672C15.1661 30.3652 14.6816 30.8497 14.0836 30.8502C13.485 30.8502 13 31.3352 13 31.9338C13 32.5319 13.485 33.0169 14.0836 33.0169Z" fill="#FF9205"/>
<path d="M46.5836 33.0169C47.1816 33.0174 47.6661 33.5024 47.6666 34.1004C47.6666 34.6985 48.1521 35.1835 48.7502 35.1835C49.3483 35.1835 49.8338 34.6985 49.8338 34.1004C49.8343 33.5024 50.3188 33.0174 50.9168 33.0169C51.5154 33.0169 52.0004 32.5319 52.0004 31.9338C52.0004 31.3352 51.5154 30.8502 50.9168 30.8502C50.3188 30.8497 49.8343 30.3652 49.8338 29.7672C49.8338 29.1686 49.3483 28.6836 48.7502 28.6836C48.1521 28.6836 47.6666 29.1686 47.6666 29.7672C47.6661 30.3652 47.1816 30.8497 46.5836 30.8502C45.985 30.8502 45.5 31.3352 45.5 31.9338C45.5 32.5319 45.985 33.0169 46.5836 33.0169Z" fill="#FF9205"/>
<path d="M24.919 33.0169C25.5171 33.0174 26.0021 33.5024 26.0026 34.1004C26.0026 34.6985 26.4876 35.1835 27.0856 35.1835C27.6842 35.1835 28.1692 34.6985 28.1692 34.1004C28.1697 33.5024 28.6542 33.0174 29.2523 33.0169C29.8508 33.0169 30.3358 32.5319 30.3358 31.9338C30.3358 31.3352 29.8508 30.8502 29.2523 30.8502C28.6542 30.8497 28.1697 30.3652 28.1692 29.7672C28.1692 29.1686 27.6842 28.6836 27.0856 28.6836C26.4876 28.6836 26.0026 29.1686 26.0026 29.7672C26.0021 30.3652 25.5171 30.8497 24.919 30.8502C24.3209 30.8502 23.8359 31.3352 23.8359 31.9338C23.8359 32.5319 24.3209 33.0169 24.919 33.0169Z" fill="#FF9205"/>
<path d="M35.7476 33.0169C36.3457 33.0174 36.8302 33.5024 36.8307 34.1004C36.8307 34.6985 37.3157 35.1835 37.9143 35.1835C38.5123 35.1835 38.9973 34.6985 38.9973 34.1004C38.9978 33.5024 39.4828 33.0174 40.0809 33.0169C40.679 33.0169 41.164 32.5319 41.164 31.9338C41.164 31.3352 40.679 30.8502 40.0809 30.8502C39.4828 30.8497 38.9978 30.3652 38.9973 29.7672C38.9973 29.1686 38.5123 28.6836 37.9143 28.6836C37.3157 28.6836 36.8307 29.1686 36.8307 29.7672C36.8302 30.3652 36.3457 30.8497 35.7476 30.8502C35.1491 30.8502 34.6641 31.3352 34.6641 31.9338C34.6641 32.5319 35.1491 33.0169 35.7476 33.0169Z" fill="#FF9205"/>
<path d="M46.5836 22.1848C47.1816 22.1853 47.6661 22.6703 47.6666 23.2684C47.6666 23.8665 48.1521 24.3515 48.7502 24.3515C49.3483 24.3515 49.8338 23.8665 49.8338 23.2684C49.8343 22.6703 50.3188 22.1853 50.9168 22.1848C51.5154 22.1848 52.0004 21.6998 52.0004 21.1013C52.0004 20.5032 51.5154 20.0182 50.9168 20.0182C50.3188 20.0177 49.8343 19.5327 49.8338 18.9346C49.8338 18.3366 49.3483 17.8516 48.7502 17.8516C48.1521 17.8516 47.6666 18.3366 47.6666 18.9346C47.6661 19.5327 47.1816 20.0177 46.5836 20.0182C45.985 20.0182 45.5 20.5032 45.5 21.1013C45.5 21.6998 45.985 22.1848 46.5836 22.1848Z" fill="#FF9205"/>
<path d="M35.7476 22.1848C36.3457 22.1853 36.8302 22.6703 36.8307 23.2684C36.8307 23.8665 37.3157 24.3515 37.9143 24.3515C38.5123 24.3515 38.9973 23.8665 38.9973 23.2684C38.9978 22.6703 39.4828 22.1853 40.0809 22.1848C40.679 22.1848 41.164 21.6998 41.164 21.1013C41.164 20.5032 40.679 20.0182 40.0809 20.0182C39.4828 20.0177 38.9978 19.5327 38.9973 18.9346C38.9973 18.3366 38.5123 17.8516 37.9143 17.8516C37.3157 17.8516 36.8307 18.3366 36.8307 18.9346C36.8302 19.5327 36.3457 20.0177 35.7476 20.0182C35.1491 20.0182 34.6641 20.5032 34.6641 21.1013C34.6641 21.6998 35.1491 22.1848 35.7476 22.1848Z" fill="#FF9205"/>
</svg>
